<svg width="12" height="21" viewBox="0 0 12 21" fill="none" xmlns="http://www.w3.org/2000/svg">
<g clip-path="url(#clip0_49_1457)">
<path d="M7.2 16.2682C7.2 16.9604 6.66375 17.5196 6 17.5196C5.33625 17.5196 4.8 16.9604 4.8 16.2682C4.8 15.576 5.33625 15.0168 6 15.0168C6.66375 15.0168 7.2 15.576 7.2 16.2682ZM8.4 3.75421H3.6V13.1397H8.4V3.75421ZM9.15 2.5028C9.3975 2.5028 9.6 2.71398 9.6 2.97208V13.9218C9.6 14.1799 9.3975 14.3911 9.15 14.3911H2.85C2.6025 14.3911 2.4 14.1799 2.4 13.9218V2.97208C2.4 2.71398 2.6025 2.5028 2.85 2.5028H9.15ZM12 1.8771V18.1453C12 19.1816 11.1938 20.0224 10.2 20.0224H1.8C0.80625 20.0224 0 19.1816 0 18.1453V1.8771C0 0.840786 0.80625 0 1.8 0H10.2C11.1938 0 12 0.840786 12 1.8771ZM10.8 1.8771C10.8 1.53297 10.53 1.2514 10.2 1.2514H1.8C1.47 1.2514 1.2 1.53297 1.2 1.8771V18.1453C1.2 18.4895 1.47 18.771 1.8 18.771H10.2C10.53 18.771 10.8 18.4895 10.8 18.1453V1.8771Z" fill="#C5D8F8"/>
</g>
<defs>
<clipPath id="clip0_49_1457">
<rect width="12" height="20.0224" fill="white"/>
</clipPath>
</defs>
</svg>
