<svg width="15" height="19" viewBox="0 0 15 19" fill="none" xmlns="http://www.w3.org/2000/svg">
<g clip-path="url(#clip0_49_1453)">
<path d="M14.0625 0H0.9375C0.421875 0 0 0.400781 0 0.890625V3.85938C0 4.34922 0.421875 4.75 0.9375 4.75H1.25V17.8125C1.25 18.4656 1.8125 19 2.5 19H12.5C13.1875 19 13.75 18.4656 13.75 17.8125V4.75H14.0625C14.5781 4.75 15 4.34922 15 3.85938V0.890625C15 0.400781 14.5781 0 14.0625 0ZM12.5 17.8125H2.5V15.4375H5.9375C6.10938 15.4375 6.25 15.3039 6.25 15.1406V14.5469C6.25 14.3836 6.10938 14.25 5.9375 14.25H2.5V11.875H5.9375C6.10938 11.875 6.25 11.7414 6.25 11.5781V10.9844C6.25 10.8211 6.10938 10.6875 5.9375 10.6875H2.5V8.3125H5.9375C6.10938 8.3125 6.25 8.17891 6.25 8.01562V7.42188C6.25 7.25859 6.10938 7.125 5.9375 7.125H2.5V4.75H12.5V17.8125ZM13.75 3.5625H1.25V1.1875H13.75V3.5625Z" fill="#C5D8F8"/>
</g>
<defs>
<clipPath id="clip0_49_1453">
<rect width="15" height="19" fill="white"/>
</clipPath>
</defs>
</svg>
