<svg width="24" height="19" viewBox="0 0 24 19" fill="none" xmlns="http://www.w3.org/2000/svg">
<path d="M10.5 7.125C10.665 7.125 10.8 6.99141 10.8 6.82812V6.23438C10.8 6.07109 10.665 5.9375 10.5 5.9375H1.5C1.335 5.9375 1.2 6.07109 1.2 6.23438V6.82812C1.2 6.99141 1.335 7.125 1.5 7.125H10.5ZM23.7 14.25H22.8V10.2385C22.8 9.61504 22.545 9.00273 22.095 8.56113L18.9487 5.44766C18.5063 5.00234 17.8875 4.75 17.2538 4.75H15.6V2.9168C15.6 1.96309 14.7675 1.1875 13.7475 1.1875H4.2525C3.2325 1.1875 2.4 1.96309 2.4 2.9168V3.5625H0.3C0.135 3.5625 0 3.69609 0 3.85938V4.45312C0 4.61641 0.135 4.75 0.3 4.75H9.3C9.465 4.75 9.6 4.61641 9.6 4.45312V3.85938C9.6 3.69609 9.465 3.5625 9.3 3.5625H3.6V2.9168C3.6 2.61621 3.8925 2.375 4.2525 2.375H13.7475C14.1075 2.375 14.4 2.61621 14.4 2.9168V14.25H7.785C7.2375 13.5338 6.375 13.0625 5.4 13.0625C4.72125 13.0625 4.1025 13.2926 3.6 13.6711V10.6875H2.4V16.0312C2.4 17.6715 3.7425 19 5.4 19C7.0575 19 8.4 17.6715 8.4 16.0312C8.4 15.8271 8.3775 15.6305 8.34 15.4375H15.66C15.6188 15.6305 15.6 15.8271 15.6 16.0312C15.6 17.6715 16.9425 19 18.6 19C20.2575 19 21.6 17.6715 21.6 16.0312C21.6 15.8271 21.5775 15.6305 21.54 15.4375H23.7C23.865 15.4375 24 15.3039 24 15.1406V14.5469C24 14.3836 23.865 14.25 23.7 14.25ZM5.4 17.8125C4.40625 17.8125 3.6 17.0146 3.6 16.0312C3.6 15.0479 4.40625 14.25 5.4 14.25C6.39375 14.25 7.2 15.0479 7.2 16.0312C7.2 17.0146 6.39375 17.8125 5.4 17.8125ZM15.6 5.9375H17.2538C17.5688 5.9375 17.88 6.06367 18.1013 6.28633L21.2475 9.39981C21.2775 9.42949 21.2888 9.47031 21.315 9.50371H15.6V5.9375ZM18.6 17.8125C17.6063 17.8125 16.8 17.0146 16.8 16.0312C16.8 15.0479 17.6063 14.25 18.6 14.25C19.5938 14.25 20.4 15.0479 20.4 16.0312C20.4 17.0146 19.5938 17.8125 18.6 17.8125ZM21.6 14.25H20.985C20.4375 13.5338 19.575 13.0625 18.6 13.0625C17.625 13.0625 16.7625 13.5338 16.215 14.25H15.6V10.6875H21.6V14.25ZM9.6 9.20312V8.60938C9.6 8.44609 9.465 8.3125 9.3 8.3125H0.3C0.135 8.3125 0 8.44609 0 8.60938V9.20312C0 9.36641 0.135 9.5 0.3 9.5H9.3C9.465 9.5 9.6 9.36641 9.6 9.20312Z" fill="#C5D8F8"/>
</svg>
