<svg width="18" height="20" viewBox="0 0 18 20" fill="none" xmlns="http://www.w3.org/2000/svg">
<path d="M8.69722 1.12742L8.41312 1.41316C8.22484 1.60254 8.22484 1.90962 8.41312 2.09905L15.5848 9.31294H0.482143C0.21588 9.31294 0 9.53009 0 9.79792V10.2021C0 10.4699 0.21588 10.6871 0.482143 10.6871H15.5848L8.41312 17.901C8.22484 18.0903 8.22484 18.3974 8.41312 18.5868L8.69722 18.8726C8.8855 19.062 9.19078 19.062 9.37906 18.8726L17.8588 10.3429C18.0471 10.1535 18.0471 9.84646 17.8588 9.65704L9.37906 1.12742C9.19078 0.937995 8.8855 0.937995 8.69722 1.12742Z" fill="white"/>
</svg>
